<?xml version="1.0" encoding="UTF-8"?>
<!DOCTYPE svg PUBLIC "-//W3C//DTD SVG 1.1//EN" "http://www.w3.org/Graphics/SVG/1.1/DTD/svg11.dtd">
<svg xmlns="http://www.w3.org/2000/svg" version="1.1" width="350px" height="56px" style="shape-rendering:geometricPrecision; text-rendering:geometricPrecision; image-rendering:optimizeQuality; fill-rule:evenodd; clip-rule:evenodd" xmlns:xlink="http://www.w3.org/1999/xlink">
<g><path style="opacity:0.986" fill="#cb9421" d="M 20.5,-0.5 C 21.1667,-0.5 21.8333,-0.5 22.5,-0.5C 22.7706,1.43046 23.7706,2.76379 25.5,3.5C 23.8333,4.16667 22.1667,4.83333 20.5,5.5C 19.0582,4.18047 18.3915,2.5138 18.5,0.5C 19.4916,0.67158 20.1583,0.338246 20.5,-0.5 Z"/></g>
<g><path style="opacity:1" fill="#7fa32f" d="M 28.5,-0.5 C 29.8333,-0.5 31.1667,-0.5 32.5,-0.5C 32.4326,0.95875 32.7659,2.29208 33.5,3.5C 32.5,3.5 31.5,3.5 30.5,3.5C 29.3995,2.39514 28.7329,1.06181 28.5,-0.5 Z"/></g>
<g><path style="opacity:0.385" fill="#8b6363" d="M 240.5,5.5 C 239.833,5.5 239.167,5.5 238.5,5.5C 237.859,4.51776 237.193,3.51776 236.5,2.5C 236.833,2.16667 237.167,1.83333 237.5,1.5C 239.235,2.05696 240.902,2.39029 242.5,2.5C 241.807,3.51776 241.141,4.51776 240.5,5.5 Z"/></g>
<g><path style="opacity:0.443" fill="#a09d29" d="M 22.5,-0.5 C 24.5,-0.5 26.5,-0.5 28.5,-0.5C 28.7329,1.06181 29.3995,2.39514 30.5,3.5C 28.8333,3.5 27.1667,3.5 25.5,3.5C 23.7706,2.76379 22.7706,1.43046 22.5,-0.5 Z"/></g>
<g><path style="opacity:0.589" fill="#8b6363" d="M 206.5,2.5 C 207.976,4.06195 209.476,5.72862 211,7.5C 211.494,5.86586 211.66,4.19919 211.5,2.5C 212.5,2.5 213.5,2.5 214.5,2.5C 214.343,3.87344 214.51,5.20677 215,6.5C 217.522,3.67361 219.522,4.00694 221,7.5C 221.949,4.80033 223.783,3.967 226.5,5C 227.877,12.3422 228.544,12.1755 228.5,4.5C 229.5,4.5 230.5,4.5 231.5,4.5C 231.833,8.5 232.167,8.5 232.5,4.5C 233.5,4.5 234.5,4.5 235.5,4.5C 235.5,7.83333 235.5,11.1667 235.5,14.5C 233.876,14.6399 232.71,13.9733 232,12.5C 230.667,15.1667 229.333,15.1667 228,12.5C 225.667,15.1667 223.333,15.1667 221,12.5C 220.326,13.5784 219.326,14.2451 218,14.5C 215.877,13.4172 213.71,13.4172 211.5,14.5C 211.5,12.8333 211.5,11.1667 211.5,9.5C 210.5,9.5 209.5,9.5 208.5,9.5C 208.785,11.288 208.452,12.9547 207.5,14.5C 206.509,10.5546 206.176,6.55461 206.5,2.5 Z M 217.5,7.5 C 218.613,8.94639 218.78,10.6131 218,12.5C 216.212,10.9769 216.045,9.3102 217.5,7.5 Z"/></g>
<g><path style="opacity:0.535" fill="#8b6363" d="M 254.5,2.5 C 255.5,2.5 256.5,2.5 257.5,2.5C 257.089,5.27632 257.922,5.94299 260,4.5C 261.982,4.99035 263.649,5.99035 265,7.5C 266.478,4.00694 268.478,3.67361 271,6.5C 271.71,5.02674 272.876,4.36007 274.5,4.5C 274.343,5.87344 274.51,7.20677 275,8.5C 275.196,6.71387 276.029,5.38054 277.5,4.5C 278.487,7.76829 278.82,11.1016 278.5,14.5C 277.5,14.5 276.5,14.5 275.5,14.5C 275.167,9.16667 274.833,9.16667 274.5,14.5C 272.876,14.6399 271.71,13.9733 271,12.5C 269,15.1667 267,15.1667 265,12.5C 264.5,13 264,13.5 263.5,14C 260.518,14.498 257.518,14.6646 254.5,14.5C 254.167,10.5 253.833,10.5 253.5,14.5C 252.167,14.5 250.833,14.5 249.5,14.5C 249.719,15.675 249.386,16.675 248.5,17.5C 247.339,13.2047 247.172,8.87132 248,4.5C 249.32,4.799 250.82,4.96566 252.5,5C 253.126,5.75044 253.626,6.58377 254,7.5C 254.494,5.86586 254.66,4.19919 254.5,2.5 Z M 250.5,7.5 C 251.613,8.94639 251.78,10.6131 251,12.5C 249.212,10.9769 249.045,9.3102 250.5,7.5 Z M 267.5,10.5 C 270.001,10.5109 270.168,11.1776 268,12.5C 267.536,11.9056 267.369,11.2389 267.5,10.5 Z"/></g>
<g><path style="opacity:0.986" fill="#fc871e" d="M 18.5,0.5 C 18.3915,2.5138 19.0582,4.18047 20.5,5.5C 13.6719,8.3287 9.33858,13.3287 7.5,20.5C 4.9315,20.4057 3.4315,19.0724 3,16.5C 2.61742,17.056 2.11742,17.3893 1.5,17.5C 4.81148,9.52184 10.4781,3.85517 18.5,0.5 Z"/></g>
<g><path style="opacity:1" fill="#26b03a" d="M 32.5,-0.5 C 33.1667,-0.5 33.8333,-0.5 34.5,-0.5C 47.0196,2.68842 54.353,10.6884 56.5,23.5C 53.9298,21.5967 51.5964,19.2634 49.5,16.5C 48.8933,16.6236 48.56,16.9569 48.5,17.5C 47.1627,14.0093 45.1627,10.8426 42.5,8C 39.676,5.92117 36.676,4.42117 33.5,3.5C 32.7659,2.29208 32.4326,0.95875 32.5,-0.5 Z"/></g>
<g><path style="opacity:0.702" fill="#8b6363" d="M 279.5,4.5 C 281.176,5.18342 281.843,6.51676 281.5,8.5C 285.071,8.40766 286.238,10.0743 285,13.5C 283.301,14.4061 281.467,14.7394 279.5,14.5C 279.5,11.1667 279.5,7.83333 279.5,4.5 Z M 281.5,10.5 C 284.001,10.5109 284.168,11.1776 282,12.5C 281.536,11.9056 281.369,11.2389 281.5,10.5 Z"/></g>
<g><path style="opacity:0.565" fill="#8b6363" d="M 289.5,4.5 C 292.346,4.80873 293.846,6.4754 294,9.5C 294.098,7.3807 294.931,5.71403 296.5,4.5C 297.799,5.09001 298.632,6.09001 299,7.5C 299.612,4.96827 301.112,4.13494 303.5,5C 305.121,7.166 305.955,9.666 306,12.5C 306.333,10.1667 306.667,7.83333 307,5.5C 308.699,4.59391 310.533,4.26057 312.5,4.5C 312.515,15.0854 313.182,15.0854 314.5,4.5C 315.308,4.80762 315.975,5.30762 316.5,6C 315.549,6.71752 315.383,7.55085 316,8.5C 316.956,7.42138 317.789,6.25471 318.5,5C 319.935,5.31118 321.268,5.14452 322.5,4.5C 323.833,15.1667 325.167,15.1667 326.5,4.5C 327.318,7.10707 327.818,9.77374 328,12.5C 328.182,9.77374 328.682,7.10707 329.5,4.5C 330.799,5.09001 331.632,6.09001 332,7.5C 332.483,6.55198 332.649,5.55198 332.5,4.5C 333.5,4.5 334.5,4.5 335.5,4.5C 335.5,7.83333 335.5,11.1667 335.5,14.5C 333.876,14.6399 332.71,13.9733 332,12.5C 330.649,13.9606 329.149,15.294 327.5,16.5C 324.444,14.7108 321.111,14.0441 317.5,14.5C 317.167,10.5 316.833,10.5 316.5,14.5C 314.857,14.4802 313.524,15.1468 312.5,16.5C 310.397,13.949 308.231,13.949 306,16.5C 303.479,15.3676 301.145,14.0343 299,12.5C 298.161,13.6241 296.994,14.2908 295.5,14.5C 293.662,13.8877 291.995,13.8877 290.5,14.5C 289.513,11.2317 289.18,7.89838 289.5,4.5 Z M 309.5,7.5 C 310.788,9.03479 310.788,10.7015 309.5,12.5C 309.193,11.1125 309.193,9.44585 309.5,7.5 Z M 301.5,10.5 C 304.001,10.5109 304.168,11.1776 302,12.5C 301.536,11.9056 301.369,11.2389 301.5,10.5 Z"/></g>
<g><path style="opacity:0.659" fill="#8b6363" d="M 336.5,4.5 C 337.943,5.33507 338.943,6.6684 339.5,8.5C 340.167,7.16667 340.833,5.83333 341.5,4.5C 342.833,7.83333 342.833,11.1667 341.5,14.5C 340.692,14.1924 340.025,13.6924 339.5,13C 340.711,12.1072 340.711,11.2739 339.5,10.5C 338.833,11.8333 338.167,13.1667 337.5,14.5C 336.513,11.2317 336.18,7.89838 336.5,4.5 Z"/></g>
<g><path style="opacity:0.66" fill="#8b6363" d="M 349.5,4.5 C 349.5,7.83333 349.5,11.1667 349.5,14.5C 348.069,14.1193 347.236,13.1193 347,11.5C 346.517,12.448 346.351,13.448 346.5,14.5C 345.5,14.5 344.5,14.5 343.5,14.5C 343.18,11.1016 343.513,7.76829 344.5,4.5C 345.281,5.72865 345.781,7.06199 346,8.5C 346.498,6.45559 347.665,5.12225 349.5,4.5 Z"/></g>
<g><path style="opacity:0.741" fill="#8b6363" d="M 238.5,5.5 C 238.638,9.28608 239.305,9.28608 240.5,5.5C 241.765,6.51448 242.431,8.01448 242.5,10C 242.167,11.5 241.833,13 241.5,14.5C 240.749,13.624 240.249,12.624 240,11.5C 237.667,15.6125 236.5,15.1125 236.5,10C 236.569,8.01448 237.235,6.51448 238.5,5.5 Z M 238.5,5.5 C 239.167,5.5 239.833,5.5 240.5,5.5C 239.305,9.28608 238.638,9.28608 238.5,5.5 Z"/></g>
<g><path style="opacity:0.566" fill="#1fb03b" d="M 30.5,8.5 C 32.5,8.5 34.5,8.5 36.5,8.5C 36.5,10.5 36.5,12.5 36.5,14.5C 34.1939,12.8606 32.1939,10.8606 30.5,8.5 Z"/></g>
<g><path style="opacity:1" fill="#b39926" d="M 21.5,9.5 C 22.209,8.59603 23.209,8.26269 24.5,8.5C 26.8545,10.1878 28.8545,12.1878 30.5,14.5C 29.1667,14.5 27.8333,14.5 26.5,14.5C 25.8333,11.8333 24.1667,10.1667 21.5,9.5 Z"/></g>
<g><path style="opacity:1" fill="#e48f1b" d="M 21.5,9.5 C 24.1667,10.1667 25.8333,11.8333 26.5,14.5C 25.1667,14.5 24.5,15.1667 24.5,16.5C 23.5,15.8333 22.5,15.1667 21.5,14.5C 21.1778,13.1418 21.1778,11.4752 21.5,9.5 Z"/></g>
<g><path style="opacity:0.557" fill="#91a02c" d="M 24.5,8.5 C 25.5,8.5 26.5,8.5 27.5,8.5C 30.9415,10.6116 33.2748,13.6116 34.5,17.5C 33.609,16.8902 32.609,16.5569 31.5,16.5C 31.6716,15.5084 31.3382,14.8417 30.5,14.5C 28.8545,12.1878 26.8545,10.1878 24.5,8.5 Z"/></g>
<g><path style="opacity:1" fill="#74a631" d="M 27.5,8.5 C 28.5,8.5 29.5,8.5 30.5,8.5C 32.1939,10.8606 34.1939,12.8606 36.5,14.5C 36.5,15.8333 36.5,17.1667 36.5,18.5C 37.5,18.5 38.5,18.5 39.5,18.5C 40.2876,21.6209 42.2876,23.2876 45.5,23.5C 45.5,25.1667 45.5,26.8333 45.5,28.5C 44.3303,26.7215 42.6636,25.7215 40.5,25.5C 40.6716,24.5084 40.3382,23.8417 39.5,23.5C 38.5501,20.8851 36.8835,18.8851 34.5,17.5C 33.2748,13.6116 30.9415,10.6116 27.5,8.5 Z"/></g>
<g><path style="opacity:0.754" fill="#fe8621" d="M 21.5,14.5 C 22.5,15.1667 23.5,15.8333 24.5,16.5C 24.5,18.8333 24.5,21.1667 24.5,23.5C 21.2869,23.19 18.2869,23.5233 15.5,24.5C 13.8207,23.0837 12.1541,21.7503 10.5,20.5C 10.6107,19.8826 10.944,19.3826 11.5,19C 14.4816,18.502 17.4816,18.3354 20.5,18.5C 20.4326,17.0413 20.7659,15.7079 21.5,14.5 Z"/></g>
<g><path style="opacity:1" fill="#ab9b27" d="M 31.5,16.5 C 32.609,16.5569 33.609,16.8902 34.5,17.5C 36.8835,18.8851 38.5501,20.8851 39.5,23.5C 38.1667,23.5 36.8333,23.5 35.5,23.5C 34.7377,21.7376 33.4044,20.7376 31.5,20.5C 31.5,19.1667 31.5,17.8333 31.5,16.5 Z"/></g>
<g><path style="opacity:0.849" fill="#8b6363" d="M 73.5,19.5 C 79.072,18.9896 84.4053,19.8229 89.5,22C 91.2625,25.2432 91.9292,28.7432 91.5,32.5C 88.5,32.5 85.5,32.5 82.5,32.5C 82.67,31.1779 82.3366,30.0113 81.5,29C 79.1902,28.5034 76.8568,28.3367 74.5,28.5C 73.0071,33.2162 73.1737,37.8829 75,42.5C 77.0639,43.5914 79.2305,43.7581 81.5,43C 82.3802,41.6439 82.7135,40.1439 82.5,38.5C 85.5,38.5 88.5,38.5 91.5,38.5C 91.6641,41.1873 91.4974,43.854 91,46.5C 90.1667,48.6667 88.6667,50.1667 86.5,51C 81.5,51.6667 76.5,51.6667 71.5,51C 68.0267,50.1934 65.86,48.0268 65,44.5C 64.3333,38.8333 64.3333,33.1667 65,27.5C 66.4532,23.209 69.2865,20.5423 73.5,19.5 Z"/></g>
<g><path style="opacity:0.826" fill="#8b6363" d="M 162.5,19.5 C 164.167,19.5 165.833,19.5 167.5,19.5C 167.5,21.8333 167.5,24.1667 167.5,26.5C 166.167,26.5 164.833,26.5 163.5,26.5C 163.351,27.552 163.517,28.552 164,29.5C 165.011,28.6634 166.178,28.33 167.5,28.5C 167.5,30.8333 167.5,33.1667 167.5,35.5C 166.167,35.5 164.833,35.5 163.5,35.5C 163.5,40.8333 163.5,46.1667 163.5,51.5C 160.833,51.5 158.167,51.5 155.5,51.5C 155.5,46.1667 155.5,40.8333 155.5,35.5C 154.5,35.5 153.5,35.5 152.5,35.5C 152.192,33.076 152.526,30.7427 153.5,28.5C 154.086,28.7093 154.586,29.0426 155,29.5C 154.412,23.6253 156.912,20.2919 162.5,19.5 Z"/></g>
<g><path style="opacity:0.86" fill="#8b6363" d="M 253.5,19.5 C 258.667,19.09 263.667,19.7567 268.5,21.5C 271.057,24.6993 272.057,28.366 271.5,32.5C 268.5,32.5 265.5,32.5 262.5,32.5C 262.67,31.1779 262.337,30.0113 261.5,29C 255.1,26.7682 252.433,28.9349 253.5,35.5C 252.537,42.21 255.203,44.5434 261.5,42.5C 262.246,41.2638 262.579,39.9305 262.5,38.5C 265.5,38.5 268.5,38.5 271.5,38.5C 272.564,44.2039 270.564,48.3706 265.5,51C 260.5,51.6667 255.5,51.6667 250.5,51C 248.714,50.2155 247.214,49.0488 246,47.5C 244.409,40.608 244.076,33.608 245,26.5C 246.84,22.8151 249.673,20.4818 253.5,19.5 Z"/></g>
<g><path style="opacity:0.815" fill="#8b6363" d="M 273.5,19.5 C 276.998,18.9547 279.998,19.788 282.5,22C 281.167,31.3333 281.167,40.6667 282.5,50C 279.722,51.3919 276.722,51.8919 273.5,51.5C 273.5,40.8333 273.5,30.1667 273.5,19.5 Z"/></g>
<g><path style="opacity:0.667" fill="#8b6363" d="M 284.5,19.5 C 287.167,19.5 289.833,19.5 292.5,19.5C 292.5,21.8333 292.5,24.1667 292.5,26.5C 289.833,26.5 287.167,26.5 284.5,26.5C 284.5,24.1667 284.5,21.8333 284.5,19.5 Z"/></g>
<g><path style="opacity:0.608" fill="#8b6363" d="M 319.5,19.5 C 322.167,19.5 324.833,19.5 327.5,19.5C 327.5,21.8333 327.5,24.1667 327.5,26.5C 324.813,26.6641 322.146,26.4974 319.5,26C 318.232,23.8368 318.232,21.6702 319.5,19.5 Z"/></g>
<g><path style="opacity:0.767" fill="#30af3a" d="M 39.5,18.5 C 41.5,18.5 43.5,18.5 45.5,18.5C 45.5,20.1667 45.5,21.8333 45.5,23.5C 42.2876,23.2876 40.2876,21.6209 39.5,18.5 Z"/></g>
<g><path style="opacity:0.908" fill="#d5921e" d="M 31.5,20.5 C 33.4044,20.7376 34.7377,21.7376 35.5,23.5C 34.1667,23.5 32.8333,23.5 31.5,23.5C 31.5,22.5 31.5,21.5 31.5,20.5 Z"/></g>
<g><path style="opacity:0.874" fill="#ff8a49" d="M 7.5,20.5 C 6.59748,23.3915 6.26414,26.3915 6.5,29.5C 5.84851,30.0906 5.18185,30.7573 4.5,31.5C 3.23412,29.5961 1.56746,28.2628 -0.5,27.5C -0.5,25.5 -0.5,23.5 -0.5,21.5C 0.344644,20.3285 1.01131,18.9952 1.5,17.5C 2.11742,17.3893 2.61742,17.056 3,16.5C 3.4315,19.0724 4.9315,20.4057 7.5,20.5 Z"/></g>
<g><path style="opacity:0.388" fill="#60a933" d="M 56.5,23.5 C 56.5,24.8333 56.5,26.1667 56.5,27.5C 54.8622,25.6992 53.0289,24.0325 51,22.5C 50.5357,23.0944 50.369,23.7611 50.5,24.5C 50.1667,24.5 49.8333,24.5 49.5,24.5C 49.3259,22.139 48.9926,19.8056 48.5,17.5C 48.56,16.9569 48.8933,16.6236 49.5,16.5C 51.5964,19.2634 53.9298,21.5967 56.5,23.5 Z"/></g>
<g><path style="opacity:1" fill="#7fa42f" d="M 56.5,27.5 C 56.5,28.5 56.5,29.5 56.5,30.5C 55.7611,30.631 55.0944,30.4643 54.5,30C 53.5882,27.7951 52.2549,25.9618 50.5,24.5C 50.369,23.7611 50.5357,23.0944 51,22.5C 53.0289,24.0325 54.8622,25.6992 56.5,27.5 Z"/></g>
<g><path style="opacity:0.816" fill="#8b6363" d="M 212.5,24.5 C 215.167,24.5 217.833,24.5 220.5,24.5C 220.34,26.1992 220.506,27.8659 221,29.5C 223.381,28.565 225.881,28.2317 228.5,28.5C 228.5,30.8333 228.5,33.1667 228.5,35.5C 225.833,35.5 223.167,35.5 220.5,35.5C 220.18,38.8984 220.513,42.2317 221.5,45.5C 222.429,44.3112 222.762,42.9778 222.5,41.5C 224.833,41.5 227.167,41.5 229.5,41.5C 229.981,50.8273 225.648,53.994 216.5,51C 214.667,50.5 213.5,49.3333 213,47.5C 212.827,43.4592 212.327,39.4592 211.5,35.5C 210.571,36.6888 210.238,38.0222 210.5,39.5C 208.167,39.5 205.833,39.5 203.5,39.5C 203.5,38.1667 203.5,36.8333 203.5,35.5C 202.5,35.5 201.5,35.5 200.5,35.5C 200.5,40.8333 200.5,46.1667 200.5,51.5C 197.833,51.5 195.167,51.5 192.5,51.5C 192.5,43.8333 192.5,36.1667 192.5,28.5C 196.599,28.858 200.599,28.858 204.5,28.5C 207.168,28.7453 209.002,30.0786 210,32.5C 210.333,31.1667 210.667,29.8333 211,28.5C 211.333,28.8333 211.667,29.1667 212,29.5C 212.494,27.8659 212.66,26.1992 212.5,24.5 Z"/></g>
<g><path style="opacity:1" fill="#a39c29" d="M 40.5,25.5 C 42.6636,25.7215 44.3303,26.7215 45.5,28.5C 45.5,29.5 45.5,30.5 45.5,31.5C 44.078,30.075 42.4113,29.075 40.5,28.5C 40.5,27.5 40.5,26.5 40.5,25.5 Z"/></g>
<g><path style="opacity:0.848" fill="#8b6363" d="M 99.5,28.5 C 109.418,26.3704 114.752,30.2037 115.5,40C 114.839,50.8519 109.172,54.5186 98.5,51C 96.714,50.2155 95.214,49.0488 94,47.5C 93.3333,42.8333 93.3333,38.1667 94,33.5C 95.1065,30.887 96.9399,29.2203 99.5,28.5 Z M 101.5,35.5 C 103.167,35.5 104.833,35.5 106.5,35.5C 106.519,37.0603 106.852,38.5603 107.5,40C 107.235,42.5346 106.069,44.3679 104,45.5C 103.228,45.3552 102.561,45.0219 102,44.5C 101.502,41.5184 101.335,38.5184 101.5,35.5 Z"/></g>
<g><path style="opacity:0.822" fill="#8b6363" d="M 117.5,28.5 C 120.711,28.012 123.544,28.6787 126,30.5C 129.936,27.686 133.603,28.0193 137,31.5C 141.756,27.391 146.09,27.7243 150,32.5C 150.5,38.8246 150.666,45.1579 150.5,51.5C 147.833,51.5 145.167,51.5 142.5,51.5C 142.5,46.1667 142.5,40.8333 142.5,35.5C 141.167,35.5 139.833,35.5 138.5,35.5C 138.5,40.8333 138.5,46.1667 138.5,51.5C 135.278,51.8919 132.278,51.3919 129.5,50C 130.632,45.5868 130.799,41.0868 130,36.5C 128.667,35.1667 127.333,35.1667 126,36.5C 125.501,41.4889 125.334,46.4889 125.5,51.5C 122.833,51.5 120.167,51.5 117.5,51.5C 117.5,43.8333 117.5,36.1667 117.5,28.5 Z"/></g>
<g><path style="opacity:0.846" fill="#8b6363" d="M 174.5,28.5 C 180.039,27.6384 184.872,28.9718 189,32.5C 190.879,38.5325 190.379,44.3658 187.5,50C 171.736,54.8955 165.569,49.3955 169,33.5C 170.107,30.887 171.94,29.2203 174.5,28.5 Z M 176.5,35.5 C 178.167,35.5 179.833,35.5 181.5,35.5C 181.665,38.5184 181.498,41.5184 181,44.5C 179.667,45.8333 178.333,45.8333 177,44.5C 176.502,41.5184 176.335,38.5184 176.5,35.5 Z"/></g>
<g><path style="opacity:0.808" fill="#8b6363" d="M 284.5,28.5 C 287.167,28.5 289.833,28.5 292.5,28.5C 292.5,36.1667 292.5,43.8333 292.5,51.5C 289.833,51.5 287.167,51.5 284.5,51.5C 284.5,43.8333 284.5,36.1667 284.5,28.5 Z"/></g>
<g><path style="opacity:0.822" fill="#8b6363" d="M 295.5,28.5 C 298.711,28.012 301.544,28.6787 304,30.5C 308.552,27.5424 312.552,28.2091 316,32.5C 316.5,38.8246 316.666,45.1579 316.5,51.5C 313.833,51.5 311.167,51.5 308.5,51.5C 308.5,46.1667 308.5,40.8333 308.5,35.5C 306.856,35.2865 305.356,35.6198 304,36.5C 303.501,41.4889 303.334,46.4889 303.5,51.5C 300.833,51.5 298.167,51.5 295.5,51.5C 295.5,43.8333 295.5,36.1667 295.5,28.5 Z"/></g>
<g><path style="opacity:0.717" fill="#8b6363" d="M 319.5,28.5 C 322.167,28.5 324.833,28.5 327.5,28.5C 327.5,36.1667 327.5,43.8333 327.5,51.5C 324.5,51.5 321.5,51.5 318.5,51.5C 318.201,43.747 318.534,36.0804 319.5,28.5 Z"/></g>
<g><path style="opacity:0.818" fill="#8b6363" d="M 349.5,32.5 C 349.5,34.5 349.5,36.5 349.5,38.5C 346.833,38.5 344.167,38.5 341.5,38.5C 341.5,37.5 341.5,36.5 341.5,35.5C 337.866,35.1564 336.2,36.8231 336.5,40.5C 336.197,44.362 337.697,45.6953 341,44.5C 341.483,43.552 341.649,42.552 341.5,41.5C 344.167,41.5 346.833,41.5 349.5,41.5C 349.5,43.5 349.5,45.5 349.5,47.5C 348.684,49.1436 347.35,50.3103 345.5,51C 330.464,53.4984 325.298,47.3317 330,32.5C 336.499,27.208 342.999,27.208 349.5,32.5 Z"/></g>
<g><path style="opacity:1" fill="#a39c29" d="M 49.5,24.5 C 49.8333,24.5 50.1667,24.5 50.5,24.5C 52.2549,25.9618 53.5882,27.7951 54.5,30C 55.0944,30.4643 55.7611,30.631 56.5,30.5C 55.8902,31.391 55.5569,32.391 55.5,33.5C 54.1751,32.0474 53.3418,32.3808 53,34.5C 52.0513,32.9069 50.8846,31.5736 49.5,30.5C 49.5,28.5 49.5,26.5 49.5,24.5 Z"/></g>
<g><path style="opacity:0.788" fill="#ff8b4c" d="M 10.5,20.5 C 12.1541,21.7503 13.8207,23.0837 15.5,24.5C 15.5,26.5 15.5,28.5 15.5,30.5C 18.5,30.5 21.5,30.5 24.5,30.5C 24.5,33.1667 24.5,35.8333 24.5,38.5C 26.8333,38.5 29.1667,38.5 31.5,38.5C 32.8333,39.5 34.1667,40.5 35.5,41.5C 35.5,42.5 35.5,43.5 35.5,44.5C 30.5,44.5 25.5,44.5 20.5,44.5C 20.5,41.5 20.5,38.5 20.5,35.5C 17.164,35.533 13.9973,34.8664 11,33.5C 10.501,29.1794 10.3343,24.8461 10.5,20.5 Z"/></g>
<g><path style="opacity:0.457" fill="#cf931f" d="M 40.5,28.5 C 42.4113,29.075 44.078,30.075 45.5,31.5C 45.5323,33.6188 44.5323,34.9522 42.5,35.5C 42.1075,33.7162 41.4408,32.0495 40.5,30.5C 40.5,29.8333 40.5,29.1667 40.5,28.5 Z"/></g>
<g><path style="opacity:0.868" fill="#fb871a" d="M 40.5,30.5 C 41.4408,32.0495 42.1075,33.7162 42.5,35.5C 40.1667,35.5 37.8333,35.5 35.5,35.5C 35.5,37.5 35.5,39.5 35.5,41.5C 34.1667,40.5 32.8333,39.5 31.5,38.5C 32.388,35.9455 32.7214,33.2788 32.5,30.5C 35.1667,30.5 37.8333,30.5 40.5,30.5 Z"/></g>
<g><path style="opacity:0.845" fill="#e78e1a" d="M 49.5,33.5 C 50.0347,35.4456 51.368,36.4456 53.5,36.5C 51.4148,40.7076 48.0815,42.5409 43.5,42C 46.3953,39.6782 48.3953,36.8448 49.5,33.5 Z"/></g>
<g><path style="opacity:1" fill="#c69621" d="M 49.5,30.5 C 50.8846,31.5736 52.0513,32.9069 53,34.5C 53.3418,32.3808 54.1751,32.0474 55.5,33.5C 54.8333,34.5 54.1667,35.5 53.5,36.5C 51.368,36.4456 50.0347,35.4456 49.5,33.5C 49.5,32.5 49.5,31.5 49.5,30.5 Z"/></g>
<g><path style="opacity:0.977" fill="#ff8e64" d="M -0.5,27.5 C 1.56746,28.2628 3.23412,29.5961 4.5,31.5C 5.18185,30.7573 5.84851,30.0906 6.5,29.5C 7.26765,33.6989 8.60099,37.6989 10.5,41.5C 12.4385,45.4343 14.7719,49.101 17.5,52.5C 13.529,51.4281 10.029,49.4281 7,46.5C 3.67822,42.185 1.17822,37.5184 -0.5,32.5C -0.5,30.8333 -0.5,29.1667 -0.5,27.5 Z"/></g>
<g><path style="opacity:0.921" fill="#ff8c59" d="M 10.5,41.5 C 15.4091,46.6212 21.4091,49.6212 28.5,50.5C 29.8333,52.1667 31.1667,53.8333 32.5,55.5C 29.5,55.5 26.5,55.5 23.5,55.5C 21.3713,54.7972 19.3713,53.7972 17.5,52.5C 14.7719,49.101 12.4385,45.4343 10.5,41.5 Z"/></g>
<g><path style="opacity:0.885" fill="#ff872c" d="M 34.5,55.5 C 33.8333,55.5 33.1667,55.5 32.5,55.5C 31.1667,53.8333 29.8333,52.1667 28.5,50.5C 36.4201,50.1941 43.4201,47.5274 49.5,42.5C 50.5827,43.365 50.7494,44.365 50,45.5C 45.6915,50.3353 40.5249,53.6686 34.5,55.5 Z"/></g>
</svg>
