<?xml version="1.0" encoding="UTF-8"?>
<!DOCTYPE svg PUBLIC "-//W3C//DTD SVG 1.1//EN" "http://www.w3.org/Graphics/SVG/1.1/DTD/svg11.dtd">
<svg xmlns="http://www.w3.org/2000/svg" version="1.1" width="350px" height="56px" style="shape-rendering:geometricPrecision; text-rendering:geometricPrecision; image-rendering:optimizeQuality; fill-rule:evenodd; clip-rule:evenodd" xmlns:xlink="http://www.w3.org/1999/xlink">
<g><path style="opacity:0.645" fill="#969e3a" d="M 53.5,-0.5 C 56.5,-0.5 59.5,-0.5 62.5,-0.5C 63.1168,2.35539 64.1168,5.02206 65.5,7.5C 62.1667,7.5 58.8333,7.5 55.5,7.5C 55.5,7.16667 55.5,6.83333 55.5,6.5C 56.8734,6.65668 58.2068,6.49001 59.5,6C 57.9731,3.30982 55.9731,1.14316 53.5,-0.5 Z"/></g>
<g><path style="opacity:0.948" fill="#ae9734" d="M 47.5,0.5 C 48.5,0.5 49.5,0.5 50.5,0.5C 51.4194,3.08917 53.086,5.08917 55.5,6.5C 55.5,6.83333 55.5,7.16667 55.5,7.5C 54.5,7.5 53.5,7.5 52.5,7.5C 50.3702,5.87294 48.3702,4.03961 46.5,2C 47.056,1.61742 47.3893,1.11742 47.5,0.5 Z"/></g>
<g><path style="opacity:1" fill="#a39a36" d="M 52.5,-0.5 C 52.8333,-0.5 53.1667,-0.5 53.5,-0.5C 55.9731,1.14316 57.9731,3.30982 59.5,6C 58.2068,6.49001 56.8734,6.65668 55.5,6.5C 53.086,5.08917 51.4194,3.08917 50.5,0.5C 51.4916,0.67158 52.1583,0.338246 52.5,-0.5 Z"/></g>
<g><path style="opacity:0.96" fill="#85a33e" d="M 62.5,-0.5 C 62.8333,-0.5 63.1667,-0.5 63.5,-0.5C 64.5676,0.434475 65.901,0.767809 67.5,0.5C 68.5678,3.07519 70.2345,5.24186 72.5,7C 71.9056,7.46434 71.2389,7.63101 70.5,7.5C 68.8333,7.5 67.1667,7.5 65.5,7.5C 64.1168,5.02206 63.1168,2.35539 62.5,-0.5 Z"/></g>
<g><path style="opacity:0.972" fill="#ba9432" d="M 47.5,0.5 C 47.3893,1.11742 47.056,1.61742 46.5,2C 48.3702,4.03961 50.3702,5.87294 52.5,7.5C 51.4324,8.43448 50.099,8.76781 48.5,8.5C 45.5726,7.24269 43.2393,5.24269 41.5,2.5C 43.3024,1.5418 45.3024,0.875132 47.5,0.5 Z"/></g>
<g><path style="opacity:0.91" fill="#70aa43" d="M 67.5,0.5 C 71.1667,1.16667 74.8333,1.83333 78.5,2.5C 81.1766,8.01948 85.1766,12.5195 90.5,16C 89.944,16.3826 89.6107,16.8826 89.5,17.5C 83.8166,12.8261 77.4833,9.49274 70.5,7.5C 71.2389,7.63101 71.9056,7.46434 72.5,7C 70.2345,5.24186 68.5678,3.07519 67.5,0.5 Z"/></g>
<g><path style="opacity:0.982" fill="#c8902e" d="M 41.5,2.5 C 43.2393,5.24269 45.5726,7.24269 48.5,8.5C 46.351,9.73623 44.0177,10.7362 41.5,11.5C 40.4566,8.94384 38.7899,6.77717 36.5,5C 37.056,4.61742 37.3893,4.11742 37.5,3.5C 38.7079,2.76589 40.0413,2.43255 41.5,2.5 Z"/></g>
<g><path style="opacity:0.997" fill="#d98b2b" d="M 37.5,3.5 C 37.3893,4.11742 37.056,4.61742 36.5,5C 38.7899,6.77717 40.4566,8.94384 41.5,11.5C 40.0351,12.7368 38.3684,13.7368 36.5,14.5C 36.6495,13.448 36.4828,12.448 36,11.5C 34.2927,9.96252 32.7927,8.29585 31.5,6.5C 33.1815,4.99249 35.1815,3.99249 37.5,3.5 Z"/></g>
<g><path style="opacity:1" fill="#5bb048" d="M 86.5,6.5 C 95.4129,16.7513 104.746,26.7513 114.5,36.5C 115.537,37.9303 116.204,39.597 116.5,41.5C 114.242,42.4473 113.075,41.4473 113,38.5C 103.13,28.2988 93.6303,17.7988 84.5,7C 85.0944,6.53566 85.7611,6.36899 86.5,6.5 Z"/></g>
<g><path style="opacity:1" fill="#e48728" d="M 31.5,6.5 C 32.7927,8.29585 34.2927,9.96252 36,11.5C 36.4828,12.448 36.6495,13.448 36.5,14.5C 35.5,15.1667 34.5,15.8333 33.5,16.5C 30.8605,14.5272 28.5272,12.1939 26.5,9.5C 27.8993,8.11028 29.5659,7.11028 31.5,6.5 Z"/></g>
<g><path style="opacity:0.949" fill="#52b34a" d="M 86.5,6.5 C 86.8333,6.5 87.1667,6.5 87.5,6.5C 101.088,12.3232 110.088,22.3232 114.5,36.5C 104.746,26.7513 95.4129,16.7513 86.5,6.5 Z"/></g>
<g><path style="opacity:0.769" fill="#8b6363" d="M 432.5,14.5 C 433.833,14.5 435.167,14.5 436.5,14.5C 436.5,17.8333 436.5,21.1667 436.5,24.5C 438.833,24.5 441.167,24.5 443.5,24.5C 443.5,21.1667 443.5,17.8333 443.5,14.5C 444.833,14.5 446.167,14.5 447.5,14.5C 447.5,22.8333 447.5,31.1667 447.5,39.5C 446.167,39.5 444.833,39.5 443.5,39.5C 443.5,35.5 443.5,31.5 443.5,27.5C 441.167,27.5 438.833,27.5 436.5,27.5C 436.5,31.5 436.5,35.5 436.5,39.5C 435.167,39.5 433.833,39.5 432.5,39.5C 432.5,31.1667 432.5,22.8333 432.5,14.5 Z"/></g>
<g><path style="opacity:0.701" fill="#8b6363" d="M 496.5,14.5 C 498.484,14.3832 500.15,15.0499 501.5,16.5C 506.083,13.4405 507.083,14.1072 504.5,18.5C 500.203,20.3516 497.536,19.0183 496.5,14.5 Z"/></g>
<g><path style="opacity:0.657" fill="#8b6363" d="M 533.5,14.5 C 534.833,14.5 536.167,14.5 537.5,14.5C 537.5,15.8333 537.5,17.1667 537.5,18.5C 536.167,18.5 534.833,18.5 533.5,18.5C 533.5,17.1667 533.5,15.8333 533.5,14.5 Z"/></g>
<g><path style="opacity:1" fill="#ef852a" d="M 26.5,9.5 C 28.5272,12.1939 30.8605,14.5272 33.5,16.5C 27.3839,21.2766 22.3839,26.9433 18.5,33.5C 15.8154,30.8103 13.4821,27.8103 11.5,24.5C 15.5,18.5 20.5,13.5 26.5,9.5 Z"/></g>
<g><path style="opacity:0.913" fill="#ab9835" d="M 46.5,19.5 C 48.2646,18.5386 50.2646,18.2053 52.5,18.5C 56.1506,22.1581 59.4839,26.1581 62.5,30.5C 60.1667,30.5 57.8333,30.5 55.5,30.5C 55.5,30.1667 55.5,29.8333 55.5,29.5C 56.2389,29.631 56.9056,29.4643 57.5,29C 55.502,23.8311 51.8353,20.6645 46.5,19.5 Z"/></g>
<g><path style="opacity:1" fill="#62ae46" d="M 78.5,2.5 C 81.682,3.59446 84.682,4.92779 87.5,6.5C 87.1667,6.5 86.8333,6.5 86.5,6.5C 85.7611,6.36899 85.0944,6.53566 84.5,7C 93.6303,17.7988 103.13,28.2988 113,38.5C 113.075,41.4473 114.242,42.4473 116.5,41.5C 116.629,43.2161 116.962,44.8828 117.5,46.5C 110.8,41.2937 105.3,34.9603 101,27.5C 98.2337,24.2232 95.067,21.5566 91.5,19.5C 90.5,19.1667 89.8333,18.5 89.5,17.5C 89.6107,16.8826 89.944,16.3826 90.5,16C 85.1766,12.5195 81.1766,8.01948 78.5,2.5 Z"/></g>
<g><path style="opacity:1" fill="#9a9d38" d="M 52.5,18.5 C 54.1667,18.5 55.8333,18.5 57.5,18.5C 60.4884,22.4617 63.4884,26.4617 66.5,30.5C 65.1667,30.5 63.8333,30.5 62.5,30.5C 59.4839,26.1581 56.1506,22.1581 52.5,18.5 Z"/></g>
<g><path style="opacity:1" fill="#71aa42" d="M 63.5,18.5 C 66.1667,18.5 68.8333,18.5 71.5,18.5C 70.6016,19.1577 69.6016,19.8243 68.5,20.5C 71.6284,23.6105 74.2951,26.9439 76.5,30.5C 76.5,32.1667 76.5,33.8333 76.5,35.5C 72.4352,29.9342 67.7686,24.7675 62.5,20C 63.056,19.6174 63.3893,19.1174 63.5,18.5 Z"/></g>
<g><path style="opacity:1" fill="#b89532" d="M 45.5,20.5 C 45.5,19.8333 45.8333,19.5 46.5,19.5C 51.8353,20.6645 55.502,23.8311 57.5,29C 56.9056,29.4643 56.2389,29.631 55.5,29.5C 52.141,26.4715 48.8076,23.4715 45.5,20.5 Z"/></g>
<g><path style="opacity:1" fill="#5faf47" d="M 71.5,18.5 C 73.1439,18.2865 74.6439,18.6198 76,19.5C 76.4986,23.1516 76.6653,26.8183 76.5,30.5C 74.2951,26.9439 71.6284,23.6105 68.5,20.5C 69.6016,19.8243 70.6016,19.1577 71.5,18.5 Z"/></g>
<g><path style="opacity:0.77" fill="#8b6363" d="M 452.5,20.5 C 455.187,20.3359 457.854,20.5026 460.5,21C 461.126,21.7504 461.626,22.5838 462,23.5C 462.667,27.8333 462.667,32.1667 462,36.5C 459.441,39.3492 456.274,40.1825 452.5,39C 451.299,38.0975 450.465,36.9308 450,35.5C 448.776,30.0435 449.609,25.0435 452.5,20.5 Z M 454.5,23.5 C 455.822,23.33 456.989,23.6634 458,24.5C 460.058,28.9017 459.558,32.9017 456.5,36.5C 455.522,36.0233 454.689,35.3567 454,34.5C 453.245,30.7446 453.411,27.0779 454.5,23.5 Z"/></g>
<g><path style="opacity:0.733" fill="#8b6363" d="M 464.5,20.5 C 467.85,20.335 471.183,20.5017 474.5,21C 476.68,23.4177 477.013,26.0844 475.5,29C 478.167,32 478.167,35 475.5,38C 471.94,39.2367 468.273,39.7367 464.5,39.5C 464.5,33.1667 464.5,26.8333 464.5,20.5 Z M 468.5,23.5 C 469.833,23.5 471.167,23.5 472.5,23.5C 472.5,24.8333 472.5,26.1667 472.5,27.5C 471.167,27.5 469.833,27.5 468.5,27.5C 468.5,26.1667 468.5,24.8333 468.5,23.5 Z M 468.5,30.5 C 472.172,30.1826 473.838,31.8493 473.5,35.5C 472.07,35.4208 470.736,35.7542 469.5,36.5C 468.534,34.604 468.201,32.604 468.5,30.5 Z"/></g>
<g><path style="opacity:0.748" fill="#8b6363" d="M 479.5,20.5 C 480.833,20.5 482.167,20.5 483.5,20.5C 483.335,23.5184 483.502,26.5184 484,29.5C 485.741,26.6907 486.908,23.6907 487.5,20.5C 489.167,20.5 490.833,20.5 492.5,20.5C 492.5,26.8333 492.5,33.1667 492.5,39.5C 491.167,39.5 489.833,39.5 488.5,39.5C 489.355,26.6049 487.855,26.2715 484,38.5C 482.644,39.3802 481.144,39.7135 479.5,39.5C 479.5,33.1667 479.5,26.8333 479.5,20.5 Z"/></g>
<g><path style="opacity:0.874" fill="#8b6363" d="M 495.5,20.5 C 496.5,20.5 497.5,20.5 498.5,20.5C 498.335,23.8499 498.502,27.1832 499,30.5C 500.5,27.5 502,24.5 503.5,21.5C 504.689,20.5713 506.022,20.238 507.5,20.5C 507.5,26.8333 507.5,33.1667 507.5,39.5C 506.5,39.5 505.5,39.5 504.5,39.5C 504.665,35.8183 504.499,32.1516 504,28.5C 502.226,31.7148 500.726,35.0482 499.5,38.5C 498.311,39.4287 496.978,39.762 495.5,39.5C 495.5,33.1667 495.5,26.8333 495.5,20.5 Z"/></g>
<g><path style="opacity:0.767" fill="#8b6363" d="M 518.5,20.5 C 522.182,20.3347 525.848,20.5014 529.5,21C 531.962,26.3956 532.129,31.8956 530,37.5C 527.865,39.2785 525.365,39.9452 522.5,39.5C 522.5,41.1667 522.5,42.8333 522.5,44.5C 521.167,44.5 519.833,44.5 518.5,44.5C 518.5,36.5 518.5,28.5 518.5,20.5 Z M 523.5,23.5 C 524.822,23.33 525.989,23.6634 527,24.5C 527.667,27.8333 527.667,31.1667 527,34.5C 525.667,37.1667 524.333,37.1667 523,34.5C 522.245,30.7446 522.411,27.0779 523.5,23.5 Z"/></g>
<g><path style="opacity:0.711" fill="#8b6363" d="M 533.5,20.5 C 534.833,20.5 536.167,20.5 537.5,20.5C 537.5,26.8333 537.5,33.1667 537.5,39.5C 536.167,39.5 534.833,39.5 533.5,39.5C 533.5,33.1667 533.5,26.8333 533.5,20.5 Z"/></g>
<g><path style="opacity:0.762" fill="#8b6363" d="M 540.5,20.5 C 543.85,20.335 547.183,20.5017 550.5,21C 552.706,23.209 553.04,25.709 551.5,28.5C 554.044,31.717 554.044,34.8836 551.5,38C 547.94,39.2367 544.273,39.7367 540.5,39.5C 540.5,33.1667 540.5,26.8333 540.5,20.5 Z M 544.5,23.5 C 547.5,23.1667 548.833,24.5 548.5,27.5C 547.167,27.5 545.833,27.5 544.5,27.5C 544.5,26.1667 544.5,24.8333 544.5,23.5 Z M 544.5,30.5 C 550.487,31.7764 550.82,33.7764 545.5,36.5C 544.534,34.604 544.201,32.604 544.5,30.5 Z"/></g>
<g><path style="opacity:0.764" fill="#8b6363" d="M 557.5,20.5 C 565.69,18.8486 569.023,22.182 567.5,30.5C 564.5,30.5 561.5,30.5 558.5,30.5C 558.022,33.2776 559.022,35.2776 561.5,36.5C 563.111,35.6798 563.778,34.3464 563.5,32.5C 564.833,32.5 566.167,32.5 567.5,32.5C 566.143,39.6797 562.31,41.3463 556,37.5C 553.604,31.47 554.104,25.8034 557.5,20.5 Z M 559.5,23.5 C 562.5,23.1667 563.833,24.5 563.5,27.5C 561.833,27.5 560.167,27.5 558.5,27.5C 558.433,26.0413 558.766,24.7079 559.5,23.5 Z"/></g>
<g><path style="opacity:0.725" fill="#8b6363" d="M 569.5,20.5 C 570.833,20.5 572.167,20.5 573.5,20.5C 573.5,22.8333 573.5,25.1667 573.5,27.5C 575.167,27.5 576.833,27.5 578.5,27.5C 578.5,25.1667 578.5,22.8333 578.5,20.5C 579.833,20.5 581.167,20.5 582.5,20.5C 582.5,26.8333 582.5,33.1667 582.5,39.5C 581.167,39.5 579.833,39.5 578.5,39.5C 578.5,36.5 578.5,33.5 578.5,30.5C 576.833,30.5 575.167,30.5 573.5,30.5C 573.5,33.5 573.5,36.5 573.5,39.5C 572.167,39.5 570.833,39.5 569.5,39.5C 569.5,33.1667 569.5,26.8333 569.5,20.5 Z"/></g>
<g><path style="opacity:0.829" fill="#8b6363" d="M 585.5,20.5 C 586.5,20.5 587.5,20.5 588.5,20.5C 588.5,22.8333 588.5,25.1667 588.5,27.5C 596.935,26.8639 599.268,30.3639 595.5,38C 592.274,39.1989 588.941,39.6989 585.5,39.5C 585.5,33.1667 585.5,26.8333 585.5,20.5 Z M 588.5,30.5 C 592.676,29.8307 594.009,31.3307 592.5,35C 591.207,35.49 589.873,35.6567 588.5,35.5C 588.5,33.8333 588.5,32.1667 588.5,30.5 Z"/></g>
<g><path style="opacity:0.733" fill="#8b6363" d="M 606.5,20.5 C 608.5,20.5 610.5,20.5 612.5,20.5C 613.017,24.2217 613.85,27.8883 615,31.5C 616.166,28.1724 617.332,24.8391 618.5,21.5C 620.045,20.5481 621.712,20.2148 623.5,20.5C 623.5,26.8333 623.5,33.1667 623.5,39.5C 622.167,39.5 620.833,39.5 619.5,39.5C 619.769,29.6706 618.936,29.3372 617,38.5C 615.286,39.9255 613.953,39.5922 613,37.5C 612.489,35.1218 611.822,32.7885 611,30.5C 610.502,33.4816 610.335,36.4816 610.5,39.5C 609.167,39.5 607.833,39.5 606.5,39.5C 606.5,33.1667 606.5,26.8333 606.5,20.5 Z"/></g>
<g><path style="opacity:0.773" fill="#8b6363" d="M 628.5,20.5 C 636.69,18.8486 640.023,22.182 638.5,30.5C 635.5,30.5 632.5,30.5 629.5,30.5C 629.022,33.2776 630.022,35.2776 632.5,36.5C 634.111,35.6798 634.778,34.3464 634.5,32.5C 635.833,32.5 637.167,32.5 638.5,32.5C 637.301,39.6979 633.468,41.3646 627,37.5C 624.686,31.5026 625.186,25.8359 628.5,20.5 Z M 630.5,23.5 C 633.5,23.1667 634.833,24.5 634.5,27.5C 630.509,28.128 629.176,26.7947 630.5,23.5 Z"/></g>
<g><path style="opacity:0.798" fill="#8b6363" d="M 643.5,20.5 C 646.833,20.5 650.167,20.5 653.5,20.5C 653.554,28.2326 654.22,35.8993 655.5,43.5C 654.5,43.5 653.5,43.5 652.5,43.5C 652.5,42.1667 652.5,40.8333 652.5,39.5C 649.167,39.5 645.833,39.5 642.5,39.5C 642.5,40.8333 642.5,42.1667 642.5,43.5C 641.5,43.5 640.5,43.5 639.5,43.5C 641.788,36.1086 643.122,28.4419 643.5,20.5 Z M 646.5,23.5 C 647.5,23.5 648.5,23.5 649.5,23.5C 649.5,27.5 649.5,31.5 649.5,35.5C 648.022,35.762 646.689,35.4287 645.5,34.5C 646.426,30.9062 646.759,27.2396 646.5,23.5 Z"/></g>
<g><path style="opacity:0.739" fill="#8b6363" d="M 656.5,20.5 C 657.833,20.5 659.167,20.5 660.5,20.5C 659.645,33.3951 661.145,33.7285 665,21.5C 666.356,20.6198 667.856,20.2865 669.5,20.5C 669.5,26.8333 669.5,33.1667 669.5,39.5C 668.167,39.5 666.833,39.5 665.5,39.5C 665.665,36.4816 665.498,33.4816 665,30.5C 663.667,33.1667 662.333,35.8333 661,38.5C 659.644,39.3802 658.144,39.7135 656.5,39.5C 656.5,33.1667 656.5,26.8333 656.5,20.5 Z"/></g>
<g><path style="opacity:0.786" fill="#8b6363" d="M 672.5,20.5 C 673.833,20.5 675.167,20.5 676.5,20.5C 676.5,25.5 676.5,30.5 676.5,35.5C 678.167,35.5 679.833,35.5 681.5,35.5C 681.5,30.5 681.5,25.5 681.5,20.5C 682.5,20.5 683.5,20.5 684.5,20.5C 684.5,25.5 684.5,30.5 684.5,35.5C 685.5,35.5 686.5,35.5 687.5,35.5C 687.5,38.1667 687.5,40.8333 687.5,43.5C 686.167,43.5 684.833,43.5 683.5,43.5C 683.5,42.1667 683.5,40.8333 683.5,39.5C 679.833,39.5 676.167,39.5 672.5,39.5C 672.5,33.1667 672.5,26.8333 672.5,20.5 Z"/></g>
<g><path style="opacity:0.762" fill="#8b6363" d="M 688.5,20.5 C 689.833,20.5 691.167,20.5 692.5,20.5C 692.335,23.5184 692.502,26.5184 693,29.5C 694.069,26.7919 695.236,24.1253 696.5,21.5C 698.045,20.5481 699.712,20.2148 701.5,20.5C 701.5,26.8333 701.5,33.1667 701.5,39.5C 700.167,39.5 698.833,39.5 697.5,39.5C 697.665,35.8183 697.499,32.1516 697,28.5C 695.774,31.9518 694.274,35.2852 692.5,38.5C 691.311,39.4287 689.978,39.762 688.5,39.5C 688.5,33.1667 688.5,26.8333 688.5,20.5 Z"/></g>
<g><path style="opacity:0.725" fill="#8b6363" d="M 703.5,20.5 C 704.833,20.5 706.167,20.5 707.5,20.5C 707.5,22.8333 707.5,25.1667 707.5,27.5C 709.167,27.5 710.833,27.5 712.5,27.5C 712.5,25.1667 712.5,22.8333 712.5,20.5C 713.833,20.5 715.167,20.5 716.5,20.5C 716.5,26.8333 716.5,33.1667 716.5,39.5C 715.167,39.5 713.833,39.5 712.5,39.5C 712.5,36.5 712.5,33.5 712.5,30.5C 710.833,30.5 709.167,30.5 707.5,30.5C 707.5,33.5 707.5,36.5 707.5,39.5C 706.167,39.5 704.833,39.5 703.5,39.5C 703.5,33.1667 703.5,26.8333 703.5,20.5 Z"/></g>
<g><path style="opacity:0.874" fill="#8b6363" d="M 731.5,20.5 C 731.5,26.8333 731.5,33.1667 731.5,39.5C 730.5,39.5 729.5,39.5 728.5,39.5C 728.665,35.8183 728.499,32.1516 728,28.5C 726.403,31.7914 724.903,35.1248 723.5,38.5C 722.311,39.4287 720.978,39.762 719.5,39.5C 719.5,33.1667 719.5,26.8333 719.5,20.5C 720.5,20.5 721.5,20.5 722.5,20.5C 722.335,24.1817 722.501,27.8484 723,31.5C 724.226,28.0482 725.726,24.7148 727.5,21.5C 728.689,20.5713 730.022,20.238 731.5,20.5 Z"/></g>
<g><path style="opacity:1" fill="#c7902e" d="M 45.5,20.5 C 48.8076,23.4715 52.141,26.4715 55.5,29.5C 55.5,29.8333 55.5,30.1667 55.5,30.5C 54.5,30.5 53.5,30.5 52.5,30.5C 51.2153,28.5484 49.5486,26.8818 47.5,25.5C 46.8182,26.2427 46.1515,26.9094 45.5,27.5C 45.5,25.1667 45.5,22.8333 45.5,20.5 Z"/></g>
<g><path style="opacity:1" fill="#88a33d" d="M 57.5,18.5 C 59.5,18.5 61.5,18.5 63.5,18.5C 63.3893,19.1174 63.056,19.6174 62.5,20C 67.7686,24.7675 72.4352,29.9342 76.5,35.5C 76.366,37.2915 76.6993,38.9582 77.5,40.5C 73.5022,38.0935 70.1688,35.0935 67.5,31.5C 66.8333,31.5 66.5,31.1667 66.5,30.5C 63.4884,26.4617 60.4884,22.4617 57.5,18.5 Z"/></g>
<g><path style="opacity:0.97" fill="#f08636" d="M 11.5,24.5 C 13.4821,27.8103 15.8154,30.8103 18.5,33.5C 17.3024,36.4262 16.3024,39.4262 15.5,42.5C 14.7611,42.631 14.0944,42.4643 13.5,42C 11.7068,39.2047 9.54018,36.7047 7,34.5C 6.61742,35.056 6.11742,35.3893 5.5,35.5C 6.74169,31.3447 8.74169,27.678 11.5,24.5 Z"/></g>
<g><path style="opacity:0.994" fill="#d78b2a" d="M 52.5,30.5 C 51.6586,32.3792 51.3253,34.3792 51.5,36.5C 49.4559,34.7806 47.4559,33.1139 45.5,31.5C 45.5,30.1667 45.5,28.8333 45.5,27.5C 46.1515,26.9094 46.8182,26.2427 47.5,25.5C 49.5486,26.8818 51.2153,28.5484 52.5,30.5 Z"/></g>
<g><path style="opacity:0.99" fill="#6bab44" d="M 91.5,19.5 C 95.067,21.5566 98.2337,24.2232 101,27.5C 105.3,34.9603 110.8,41.2937 117.5,46.5C 117.5,47.8333 117.5,49.1667 117.5,50.5C 112.17,46.0031 107.337,41.0031 103,35.5C 102.617,36.056 102.117,36.3893 101.5,36.5C 99.4386,30.0377 96.1052,24.3711 91.5,19.5 Z"/></g>
<g><path style="opacity:1" fill="#9d9c38" d="M 67.5,31.5 C 70.1688,35.0935 73.5022,38.0935 77.5,40.5C 79.2519,43.672 81.2519,46.672 83.5,49.5C 82.8333,49.5 82.1667,49.5 81.5,49.5C 77.46,45.4579 73.1267,41.7912 68.5,38.5C 68.6716,37.5084 68.3382,36.8417 67.5,36.5C 67.5,34.8333 67.5,33.1667 67.5,31.5 Z"/></g>
<g><path style="opacity:0.986" fill="#78a740" d="M 117.5,50.5 C 117.5,52.5 117.5,54.5 117.5,56.5C 114.398,52.8955 111.065,49.3955 107.5,46C 106.552,45.5172 105.552,45.3505 104.5,45.5C 103.654,42.4518 102.654,39.4518 101.5,36.5C 102.117,36.3893 102.617,36.056 103,35.5C 107.337,41.0031 112.17,46.0031 117.5,50.5 Z"/></g>
<g><path style="opacity:1" fill="#ef852b" d="M 45.5,31.5 C 47.4559,33.1139 49.4559,34.7806 51.5,36.5C 51.5,40.8333 51.5,45.1667 51.5,49.5C 45.1903,50.1904 38.857,50.5237 32.5,50.5C 33.2625,49.7321 34.2625,49.2321 35.5,49C 32.5712,45.8991 29.5712,43.0658 26.5,40.5C 32.5092,40.6662 38.5092,40.4995 44.5,40C 45.4438,37.2809 45.7771,34.4475 45.5,31.5 Z"/></g>
<g><path style="opacity:0.901" fill="#78a740" d="M 81.5,40.5 C 82.5,40.5 83.5,40.5 84.5,40.5C 87.8309,43.9995 90.9976,47.6662 94,51.5C 94.2784,50.5842 94.7784,49.9175 95.5,49.5C 95.5,51.8333 95.5,54.1667 95.5,56.5C 90.8432,51.2072 86.1765,45.8739 81.5,40.5 Z"/></g>
<g><path style="opacity:1" fill="#f18740" d="M 26.5,40.5 C 29.5712,43.0658 32.5712,45.8991 35.5,49C 34.2625,49.2321 33.2625,49.7321 32.5,50.5C 32.5,51.1667 32.1667,51.5 31.5,51.5C 28.8061,49.4728 26.4728,47.1395 24.5,44.5C 24.2291,42.6203 24.8958,41.287 26.5,40.5 Z"/></g>
<g><path style="opacity:1" fill="#a89935" d="M 68.5,38.5 C 73.1267,41.7912 77.46,45.4579 81.5,49.5C 80.1667,49.5 78.8333,49.5 77.5,49.5C 77.1667,49.5 76.8333,49.5 76.5,49.5C 73.5914,46.019 70.9247,42.3523 68.5,38.5 Z"/></g>
<g><path style="opacity:1" fill="#61ae46" d="M 84.5,40.5 C 87.8499,40.335 91.1832,40.5017 94.5,41C 95.4438,43.7191 95.7771,46.5525 95.5,49.5C 94.7784,49.9175 94.2784,50.5842 94,51.5C 90.9976,47.6662 87.8309,43.9995 84.5,40.5 Z"/></g>
<g><path style="opacity:1" fill="#f18846" d="M 15.5,42.5 C 14.5826,45.4173 13.916,48.4173 13.5,51.5C 12.71,52.6085 12.21,53.9419 12,55.5C 8.58396,51.9133 5.08396,48.58 1.5,45.5C 2.26235,41.8674 3.59568,38.5341 5.5,35.5C 6.11742,35.3893 6.61742,35.056 7,34.5C 9.54018,36.7047 11.7068,39.2047 13.5,42C 14.0944,42.4643 14.7611,42.631 15.5,42.5 Z"/></g>
<g><path style="opacity:0.667" fill="#c19230" d="M 76.5,49.5 C 76.8333,49.5 77.1667,49.5 77.5,49.5C 74.6965,50.6378 71.6965,50.8045 68.5,50C 67.5939,48.3005 67.2606,46.4672 67.5,44.5C 70.0592,44.2948 72.0592,45.6282 73.5,48.5C 74.325,49.3857 75.325,49.719 76.5,49.5 Z"/></g>
<g><path style="opacity:0.98" fill="#87a33d" d="M 77.5,40.5 C 78.8333,40.5 80.1667,40.5 81.5,40.5C 86.1765,45.8739 90.8432,51.2072 95.5,56.5C 95.5,58.1667 95.5,59.8333 95.5,61.5C 92.1114,59.2748 89.6114,56.2748 88,52.5C 87.6174,53.056 87.1174,53.3893 86.5,53.5C 86.9118,51.0274 85.9118,49.6941 83.5,49.5C 81.2519,46.672 79.2519,43.672 77.5,40.5 Z"/></g>
<g><path style="opacity:1" fill="#b49633" d="M 67.5,36.5 C 68.3382,36.8417 68.6716,37.5084 68.5,38.5C 70.9247,42.3523 73.5914,46.019 76.5,49.5C 75.325,49.719 74.325,49.3857 73.5,48.5C 72.0592,45.6282 70.0592,44.2948 67.5,44.5C 67.5,41.8333 67.5,39.1667 67.5,36.5 Z"/></g>
<g><path style="opacity:0.978" fill="#84a33e" d="M 104.5,45.5 C 105.552,45.3505 106.552,45.5172 107.5,46C 111.065,49.3955 114.398,52.8955 117.5,56.5C 117.5,58.5 117.5,60.5 117.5,62.5C 113.936,57.7542 110.103,53.0875 106,48.5C 105.601,48.7284 105.435,49.0618 105.5,49.5C 104.566,48.4324 104.232,47.099 104.5,45.5 Z"/></g>
<g><path style="opacity:1" fill="#f2894b" d="M 24.5,44.5 C 26.4728,47.1395 28.8061,49.4728 31.5,51.5C 31.5,54.1667 31.5,56.8333 31.5,59.5C 28.8061,57.4728 26.4728,55.1395 24.5,52.5C 24.5,49.8333 24.5,47.1667 24.5,44.5 Z"/></g>
<g><path style="opacity:1" fill="#f38a52" d="M 1.5,45.5 C 5.08396,48.58 8.58396,51.9133 12,55.5C 12.21,53.9419 12.71,52.6085 13.5,51.5C 13.3243,56.8797 13.6576,62.213 14.5,67.5C 13.7784,67.9175 13.2784,68.5842 13,69.5C 10.0458,64.6101 6.37918,60.2768 2,56.5C 1.72158,57.4158 1.22158,58.0825 0.5,58.5C 0.46716,54.1311 0.800493,49.7978 1.5,45.5 Z"/></g>
<g><path style="opacity:0.946" fill="#8b6363" d="M 173.5,117.5 C 168.167,117.5 162.833,117.5 157.5,117.5C 150.748,117.073 144.915,114.406 140,109.5C 139.138,107.913 138.471,106.246 138,104.5C 136.419,92.5578 136.085,80.5578 137,68.5C 138.627,58.5396 144.46,53.0396 154.5,52C 163.895,51.1138 173.228,51.4471 182.5,53C 186.333,54.1667 188.833,56.6667 190,60.5C 191.325,65.4012 191.825,70.4012 191.5,75.5C 185.5,75.5 179.5,75.5 173.5,75.5C 173.838,72.8431 173.171,70.5098 171.5,68.5C 156.892,64.1052 151.225,69.4385 154.5,84.5C 151.871,99.0437 157.538,104.21 171.5,100C 173.314,97.5185 173.98,94.6852 173.5,91.5C 179.5,91.5 185.5,91.5 191.5,91.5C 194.301,106.628 188.301,115.295 173.5,117.5 Z"/></g>
<g><path style="opacity:0.914" fill="#8b6363" d="M 341.5,51.5 C 344.5,51.5 347.5,51.5 350.5,51.5C 350.5,55.5 350.5,59.5 350.5,63.5C 344.11,61.8356 341.11,64.1689 341.5,70.5C 344.5,70.5 347.5,70.5 350.5,70.5C 350.5,74.5 350.5,78.5 350.5,82.5C 347.5,82.5 344.5,82.5 341.5,82.5C 341.5,93.8333 341.5,105.167 341.5,116.5C 336.167,116.5 330.833,116.5 325.5,116.5C 325.5,105.167 325.5,93.8333 325.5,82.5C 323.833,82.5 322.167,82.5 320.5,82.5C 320.5,78.5 320.5,74.5 320.5,70.5C 322.167,70.5 323.833,70.5 325.5,70.5C 324.097,58.2501 329.43,51.9168 341.5,51.5 Z"/></g>
<g><path style="opacity:0.945" fill="#8b6363" d="M 549.5,117.5 C 544.167,117.5 538.833,117.5 533.5,117.5C 524.585,117.468 518.085,113.468 514,105.5C 512.414,92.8903 512.08,80.2237 513,67.5C 514.942,58.5585 520.442,53.3918 529.5,52C 539.228,51.1092 548.894,51.4425 558.5,53C 562,54.5 564.5,57 566,60.5C 567.25,65.4195 567.75,70.4195 567.5,75.5C 561.5,75.5 555.5,75.5 549.5,75.5C 550.041,72.3484 549.041,69.8484 546.5,68C 532.579,64.5879 527.245,69.9213 530.5,84C 527.594,98.7659 533.261,104.099 547.5,100C 549.179,97.4355 549.846,94.6021 549.5,91.5C 555.5,91.5 561.5,91.5 567.5,91.5C 570.301,106.628 564.301,115.295 549.5,117.5 Z"/></g>
<g><path style="opacity:0.952" fill="#8b6363" d="M 574.5,51.5 C 579.5,51.5 584.5,51.5 589.5,51.5C 589.5,73.1667 589.5,94.8333 589.5,116.5C 584.5,116.5 579.5,116.5 574.5,116.5C 574.5,94.8333 574.5,73.1667 574.5,51.5 Z"/></g>
<g><path style="opacity:0.906" fill="#8b6363" d="M 596.5,51.5 C 601.5,51.5 606.5,51.5 611.5,51.5C 611.5,55.5 611.5,59.5 611.5,63.5C 606.5,63.5 601.5,63.5 596.5,63.5C 596.5,59.5 596.5,55.5 596.5,51.5 Z"/></g>
<g><path style="opacity:0.906" fill="#8b6363" d="M 668.5,51.5 C 673.5,51.5 678.5,51.5 683.5,51.5C 683.5,55.5 683.5,59.5 683.5,63.5C 678.5,63.5 673.5,63.5 668.5,63.5C 668.5,59.5 668.5,55.5 668.5,51.5 Z"/></g>
<g><path style="opacity:1" fill="#8fa13b" d="M 117.5,62.5 C 117.5,63.1667 117.5,63.8333 117.5,64.5C 112.869,61.5358 108.869,57.8692 105.5,53.5C 105.5,52.1667 105.5,50.8333 105.5,49.5C 105.435,49.0618 105.601,48.7284 106,48.5C 110.103,53.0875 113.936,57.7542 117.5,62.5 Z"/></g>
<g><path style="opacity:0.979" fill="#9a9d38" d="M 105.5,53.5 C 108.869,57.8692 112.869,61.5358 117.5,64.5C 116.976,66.3057 116.309,67.9724 115.5,69.5C 114.761,69.631 114.094,69.4643 113.5,69C 111.707,66.2047 109.54,63.7047 107,61.5C 106.617,62.056 106.117,62.3893 105.5,62.5C 105.5,59.5 105.5,56.5 105.5,53.5 Z"/></g>
<g><path style="opacity:0.833" fill="#a09b37" d="M 95.5,61.5 C 95.5,63.5 95.5,65.5 95.5,67.5C 94.8826,67.6107 94.3826,67.944 94,68.5C 92.6197,65.4024 90.453,63.0691 87.5,61.5C 87.6716,60.5084 87.3382,59.8417 86.5,59.5C 86.5,57.5 86.5,55.5 86.5,53.5C 87.1174,53.3893 87.6174,53.056 88,52.5C 89.6114,56.2748 92.1114,59.2748 95.5,61.5 Z"/></g>
<g><path style="opacity:0.951" fill="#f38c5d" d="M 14.5,67.5 C 16.2992,75.9193 19.6326,83.586 24.5,90.5C 23.7611,90.631 23.0944,90.4643 22.5,90C 15.9193,82.2546 8.91928,75.0879 1.5,68.5C 1.16667,65.1667 0.833333,61.8333 0.5,58.5C 1.22158,58.0825 1.72158,57.4158 2,56.5C 6.37918,60.2768 10.0458,64.6101 13,69.5C 13.2784,68.5842 13.7784,67.9175 14.5,67.5 Z"/></g>
<g><path style="opacity:0.946" fill="#8b6363" d="M 468.5,117.5 C 465.167,117.5 461.833,117.5 458.5,117.5C 453.231,116.945 449.398,114.278 447,109.5C 446.5,100.506 446.334,91.5062 446.5,82.5C 444.833,82.5 443.167,82.5 441.5,82.5C 441.5,78.5 441.5,74.5 441.5,70.5C 443.167,70.5 444.833,70.5 446.5,70.5C 446.5,67.5 446.5,64.5 446.5,61.5C 451.5,61.5 456.5,61.5 461.5,61.5C 461.5,64.5 461.5,67.5 461.5,70.5C 466.833,70.5 472.167,70.5 477.5,70.5C 477.5,74.5 477.5,78.5 477.5,82.5C 472.167,82.5 466.833,82.5 461.5,82.5C 461.334,89.8409 461.5,97.1742 462,104.5C 463.938,105.86 465.604,105.527 467,103.5C 467.495,101.527 467.662,99.5273 467.5,97.5C 471.5,97.5 475.5,97.5 479.5,97.5C 479.825,102.599 479.325,107.599 478,112.5C 475.36,115.401 472.193,117.068 468.5,117.5 Z"/></g>
<g><path style="opacity:0.859" fill="#f48d67" d="M 24.5,63.5 C 27.8419,66.8761 31.1752,70.2094 34.5,73.5C 31.4816,73.6646 28.4816,73.498 25.5,73C 24.5495,69.9433 24.2161,66.7766 24.5,63.5 Z"/></g>
<g><path style="opacity:1" fill="#ac9835" d="M 115.5,69.5 C 115.396,71.7028 114.73,73.7028 113.5,75.5C 109.595,72.953 106.929,69.6196 105.5,65.5C 105.5,64.5 105.5,63.5 105.5,62.5C 106.117,62.3893 106.617,62.056 107,61.5C 109.54,63.7047 111.707,66.2047 113.5,69C 114.094,69.4643 114.761,69.631 115.5,69.5 Z"/></g>
<g><path style="opacity:1" fill="#b59532" d="M 87.5,61.5 C 90.453,63.0691 92.6197,65.4024 94,68.5C 94.3826,67.944 94.8826,67.6107 95.5,67.5C 95.5,68.8333 95.5,70.1667 95.5,71.5C 93.9826,71.4894 92.8159,70.8228 92,69.5C 91.0467,67.5448 89.7134,65.8782 88,64.5C 87.5172,63.552 87.3505,62.552 87.5,61.5 Z"/></g>
<g><path style="opacity:1" fill="#f38b5b" d="M 24.5,52.5 C 26.4728,55.1395 28.8061,57.4728 31.5,59.5C 31.3253,61.6208 31.6586,63.6208 32.5,65.5C 35.5223,68.2971 38.5223,70.9638 41.5,73.5C 39.1667,73.5 36.8333,73.5 34.5,73.5C 31.1752,70.2094 27.8419,66.8761 24.5,63.5C 24.5,59.8333 24.5,56.1667 24.5,52.5 Z"/></g>
<g><path style="opacity:1" fill="#f18842" d="M 43.5,65.5 C 46.1667,65.5 48.8333,65.5 51.5,65.5C 51.5,70.5 51.5,75.5 51.5,80.5C 50.6981,79.0484 50.1981,77.3817 50,75.5C 47.128,72.9634 44.628,70.1301 42.5,67C 43.056,66.6174 43.3893,66.1174 43.5,65.5 Z"/></g>
<g><path style="opacity:1" fill="#d98a2a" d="M 78.5,65.5 C 79.8333,65.5 81.1667,65.5 82.5,65.5C 84.0908,68.4309 86.0908,71.0976 88.5,73.5C 86.8333,73.5 85.1667,73.5 83.5,73.5C 83.6495,72.448 83.4828,71.448 83,70.5C 80.7997,69.3492 79.2997,67.6825 78.5,65.5 Z"/></g>
<g><path style="opacity:1" fill="#c09230" d="M 86.5,59.5 C 87.3382,59.8417 87.6716,60.5084 87.5,61.5C 87.3505,62.552 87.5172,63.552 88,64.5C 89.7134,65.8782 91.0467,67.5448 92,69.5C 92.8159,70.8228 93.9826,71.4894 95.5,71.5C 95.1667,72.5 94.5,73.1667 93.5,73.5C 90.4235,71.4274 88.0902,68.7608 86.5,65.5C 86.5,63.5 86.5,61.5 86.5,59.5 Z"/></g>
<g><path style="opacity:0.977" fill="#cc8e2d" d="M 82.5,65.5 C 83.8333,65.5 85.1667,65.5 86.5,65.5C 88.0902,68.7608 90.4235,71.4274 93.5,73.5C 91.8333,73.5 90.1667,73.5 88.5,73.5C 86.0908,71.0976 84.0908,68.4309 82.5,65.5 Z"/></g>
<g><path style="opacity:0.99" fill="#f48d67" d="M 1.5,68.5 C 8.91928,75.0879 15.9193,82.2546 22.5,90C 23.0944,90.4643 23.7611,90.631 24.5,90.5C 24.3505,91.552 24.5172,92.552 25,93.5C 30.7177,99.7622 36.551,105.929 42.5,112C 41.9056,112.464 41.2389,112.631 40.5,112.5C 19.0655,105.394 6.06549,90.7276 1.5,68.5 Z"/></g>
<g><path style="opacity:0.919" fill="#ed8529" d="M 78.5,65.5 C 79.2997,67.6825 80.7997,69.3492 83,70.5C 83.4828,71.448 83.6495,72.448 83.5,73.5C 80.4552,73.5079 77.4552,73.8413 74.5,74.5C 74.5,79.1667 74.5,83.8333 74.5,88.5C 73.9815,84.9759 71.9815,82.6425 68.5,81.5C 68.3341,76.4889 68.5007,71.4889 69,66.5C 72.0567,65.5495 75.2234,65.2161 78.5,65.5 Z"/></g>
<g><path style="opacity:1" fill="#bb9432" d="M 105.5,65.5 C 106.929,69.6196 109.595,72.953 113.5,75.5C 112.833,76.5 112.167,77.5 111.5,78.5C 108.569,76.9092 105.902,74.9092 103.5,72.5C 103.927,69.9902 104.593,67.6568 105.5,65.5 Z"/></g>
<g><path style="opacity:0.94" fill="#8b6363" d="M 223.5,117.5 C 219.833,117.5 216.167,117.5 212.5,117.5C 205.905,117.355 201.072,114.355 198,108.5C 189.536,75.2963 201.703,63.4629 234.5,73C 237.806,76.112 239.639,79.9453 240,84.5C 241.029,93.315 240.363,101.982 238,110.5C 234.141,115.053 229.308,117.387 223.5,117.5 Z M 215.5,82.5 C 220.27,81.4646 223.436,83.1312 225,87.5C 225.667,91.5 225.667,95.5 225,99.5C 224.727,101.329 223.893,102.829 222.5,104C 219.833,104.667 217.167,104.667 214.5,104C 213.333,103.5 212.5,102.667 212,101.5C 211.333,96.5 211.333,91.5 212,86.5C 212.69,84.6498 213.856,83.3164 215.5,82.5 Z"/></g>
<g><path style="opacity:0.944" fill="#8b6363" d="M 247.5,70.5 C 252.167,70.5 256.833,70.5 261.5,70.5C 260.813,76.5988 262.146,77.0988 265.5,72C 272.005,69.7375 278.338,70.0708 284.5,73C 285.893,74.1711 286.727,75.6711 287,77.5C 288.587,74.2441 291.087,72.0774 294.5,71C 300.064,69.99 305.398,70.6567 310.5,73C 312.041,74.5793 313.208,76.4127 314,78.5C 314.5,91.1623 314.667,103.829 314.5,116.5C 309.5,116.5 304.5,116.5 299.5,116.5C 299.667,105.828 299.5,95.1615 299,84.5C 294.331,81.3315 290.998,82.3315 289,87.5C 288.5,97.1609 288.334,106.828 288.5,116.5C 283.5,116.5 278.5,116.5 273.5,116.5C 273.666,106.161 273.5,95.828 273,85.5C 269.798,81.6138 266.465,81.6138 263,85.5C 262.5,95.828 262.334,106.161 262.5,116.5C 257.5,116.5 252.5,116.5 247.5,116.5C 247.5,101.167 247.5,85.8333 247.5,70.5 Z"/></g>
<g><path style="opacity:0.931" fill="#8b6363" d="M 380.5,117.5 C 376.833,117.5 373.167,117.5 369.5,117.5C 358.843,117.008 353.343,111.341 353,100.5C 352.276,93.2484 352.776,86.0817 354.5,79C 356.478,74.1635 360.145,71.4968 365.5,71C 373.232,70.1439 380.898,70.4772 388.5,72C 392.498,73.4864 394.998,76.3197 396,80.5C 398.129,90.2579 397.796,99.9246 395,109.5C 394.215,111.286 393.049,112.786 391.5,114C 387.839,115.593 384.172,116.759 380.5,117.5 Z M 372.5,82.5 C 376.013,81.8757 378.847,82.8757 381,85.5C 381.667,91.1667 381.667,96.8333 381,102.5C 377.817,104.523 374.317,105.023 370.5,104C 370,103.5 369.5,103 369,102.5C 368.333,96.8333 368.333,91.1667 369,85.5C 370.145,84.3636 371.312,83.3636 372.5,82.5 Z"/></g>
<g><path style="opacity:0.924" fill="#8b6363" d="M 403.5,70.5 C 408.5,70.5 413.5,70.5 418.5,70.5C 418.343,71.8734 418.51,73.2068 419,74.5C 423.929,70.3205 429.429,69.4871 435.5,72C 437.049,73.214 438.215,74.714 439,76.5C 440.05,81.4482 440.55,86.4482 440.5,91.5C 435.833,91.5 431.167,91.5 426.5,91.5C 426.98,88.3148 426.314,85.4815 424.5,83C 422.097,82.3698 420.263,83.2031 419,85.5C 418.5,95.828 418.334,106.161 418.5,116.5C 413.5,116.5 408.5,116.5 403.5,116.5C 403.5,101.167 403.5,85.8333 403.5,70.5 Z"/></g>
<g><path style="opacity:0.946" fill="#8b6363" d="M 596.5,70.5 C 601.5,70.5 606.5,70.5 611.5,70.5C 611.5,85.8333 611.5,101.167 611.5,116.5C 606.5,116.5 601.5,116.5 596.5,116.5C 596.5,101.167 596.5,85.8333 596.5,70.5 Z"/></g>
<g><path style="opacity:0.915" fill="#8b6363" d="M 618.5,70.5 C 623.833,70.5 629.167,70.5 634.5,70.5C 633.813,76.5988 635.146,77.0988 638.5,72C 644.167,70 649.833,70 655.5,72C 657.552,72.9299 659.052,74.4299 660,76.5C 661.444,89.7596 661.944,103.093 661.5,116.5C 656.5,116.5 651.5,116.5 646.5,116.5C 646.666,106.161 646.5,95.828 646,85.5C 641.927,81.3815 638.26,81.7148 635,86.5C 634.5,96.4944 634.334,106.494 634.5,116.5C 629.167,116.5 623.833,116.5 618.5,116.5C 618.5,101.167 618.5,85.8333 618.5,70.5 Z"/></g>
<g><path style="opacity:0.946" fill="#8b6363" d="M 668.5,70.5 C 673.5,70.5 678.5,70.5 683.5,70.5C 683.5,85.8333 683.5,101.167 683.5,116.5C 678.5,116.5 673.5,116.5 668.5,116.5C 668.5,101.167 668.5,85.8333 668.5,70.5 Z"/></g>
<g><path style="opacity:0.923" fill="#8b6363" d="M 731.5,82.5 C 731.5,84.5 731.5,86.5 731.5,88.5C 726.5,88.5 721.5,88.5 716.5,88.5C 715.816,83.1496 712.816,81.3163 707.5,83C 706.333,83.5 705.5,84.3333 705,85.5C 704.333,91.1667 704.333,96.8333 705,102.5C 707.841,104.504 711.007,105.004 714.5,104C 716.016,102.103 716.683,99.9363 716.5,97.5C 721.5,97.5 726.5,97.5 731.5,97.5C 731.5,100.167 731.5,102.833 731.5,105.5C 729.468,113.198 724.468,117.198 716.5,117.5C 712.833,117.5 709.167,117.5 705.5,117.5C 701.828,116.759 698.161,115.593 694.5,114C 692.106,112.048 690.606,109.548 690,106.5C 688,98.1667 688,89.8333 690,81.5C 691.702,75.1361 695.868,71.6361 702.5,71C 710.36,69.9122 718.026,70.5789 725.5,73C 728.681,75.5509 730.681,78.7176 731.5,82.5 Z"/></g>
<g><path style="opacity:0.964" fill="#cd8e2d" d="M 103.5,72.5 C 105.902,74.9092 108.569,76.9092 111.5,78.5C 109.431,81.5725 106.764,83.9059 103.5,85.5C 101.877,83.7591 100.21,82.7591 98.5,82.5C 100.694,79.4456 102.361,76.1122 103.5,72.5 Z"/></g>
<g><path style="opacity:1" fill="#f38a52" d="M 32.5,65.5 C 36.1667,65.5 39.8333,65.5 43.5,65.5C 43.3893,66.1174 43.056,66.6174 42.5,67C 44.628,70.1301 47.128,72.9634 50,75.5C 50.1981,77.3817 50.6981,79.0484 51.5,80.5C 52.6354,82.2132 54.302,82.8799 56.5,82.5C 59.9392,86.606 63.6059,90.2727 67.5,93.5C 62.5,93.5 57.5,93.5 52.5,93.5C 52.9175,92.7784 53.5842,92.2784 54.5,92C 50.5549,88.5649 47.2216,84.7315 44.5,80.5C 44.6621,78.4727 44.4955,76.4727 44,74.5C 43.3292,73.7476 42.4959,73.4142 41.5,73.5C 38.5223,70.9638 35.5223,68.2971 32.5,65.5 Z"/></g>
<g><path style="opacity:1" fill="#f48c62" d="M 44.5,80.5 C 47.2216,84.7315 50.5549,88.5649 54.5,92C 53.5842,92.2784 52.9175,92.7784 52.5,93.5C 49.8806,93.7683 47.3806,93.435 45,92.5C 44.5012,88.5138 44.3345,84.5138 44.5,80.5 Z"/></g>
<g><path style="opacity:1" fill="#f18740" d="M 68.5,81.5 C 71.9815,82.6425 73.9815,84.9759 74.5,88.5C 74.7135,90.1439 74.3802,91.6439 73.5,93C 71.5273,93.4955 69.5273,93.6621 67.5,93.5C 63.6059,90.2727 59.9392,86.606 56.5,82.5C 60.7016,82.8168 64.7016,82.4834 68.5,81.5 Z"/></g>
<g><path style="opacity:1" fill="#e7872a" d="M 98.5,82.5 C 100.21,82.7591 101.877,83.7591 103.5,85.5C 100.9,88.4603 97.567,89.7937 93.5,89.5C 93.969,86.3567 95.6356,84.0233 98.5,82.5 Z"/></g>
<g><path style="opacity:0.959" fill="#f38c5f" d="M 24.5,90.5 C 30.0545,96.0686 36.3878,100.402 43.5,103.5C 42.448,103.351 41.448,103.517 40.5,104C 44.5025,107.155 47.5025,110.988 49.5,115.5C 46.2154,115.072 43.2154,114.072 40.5,112.5C 41.2389,112.631 41.9056,112.464 42.5,112C 36.551,105.929 30.7177,99.7622 25,93.5C 24.5172,92.552 24.3505,91.552 24.5,90.5 Z"/></g>
<g><path style="opacity:1" fill="#ef852d" d="M 80.5,113.5 C 79.4566,110.944 77.7899,108.777 75.5,107C 76.056,106.617 76.3893,106.117 76.5,105.5C 86.196,102.152 95.196,97.4855 103.5,91.5C 105.283,92.3482 105.783,93.6815 105,95.5C 98.1363,103.341 89.9696,109.341 80.5,113.5 Z"/></g>
<g><path style="opacity:1" fill="#f38a54" d="M 43.5,103.5 C 49.0712,105.246 54.7378,106.579 60.5,107.5C 63.1092,110.449 65.7759,113.449 68.5,116.5C 62.1082,116.751 55.7748,116.418 49.5,115.5C 47.5025,110.988 44.5025,107.155 40.5,104C 41.448,103.517 42.448,103.351 43.5,103.5 Z"/></g>
<g><path style="opacity:0.991" fill="#f18841" d="M 76.5,105.5 C 76.3893,106.117 76.056,106.617 75.5,107C 77.7899,108.777 79.4566,110.944 80.5,113.5C 76.5654,114.754 72.5654,115.754 68.5,116.5C 65.7759,113.449 63.1092,110.449 60.5,107.5C 65.9227,107.482 71.256,106.815 76.5,105.5 Z"/></g>
</svg>
